<?xml version="1.0" encoding="utf-8"?>
<!-- Generator: Adobe Illustrator 19.2.0, SVG Export Plug-In . SVG Version: 6.00 Build 0)  -->
<svg version="1.1" id="Слой_1" xmlns="http://www.w3.org/2000/svg" xmlns:xlink="http://www.w3.org/1999/xlink" x="0px" y="0px"
	 width="123px" height="56px" viewBox="0 0 123 56" style="enable-background:new 0 0 123 56;" xml:space="preserve">
<style type="text/css">
	.st0{fill:#421F10;}
	.st1{fill:#FFD300;}
	.st2{fill:#FFFFFF;}
	.st3{fill:none;stroke:#3D2B29;stroke-width:0.6815;stroke-linecap:round;stroke-linejoin:round;stroke-miterlimit:10;}
</style>
<g>
	<path class="st0" d="M28.1,17.2c0.7,0,1.2-0.5,1.2-1.2c0-0.7-0.5-1.3-1.1-1.3c-0.7,0-1.2,0.5-1.2,1.2
		C26.9,16.6,27.4,17.2,28.1,17.2z"/>
	<path class="st0" d="M113.5,35H34.4c0-1-0.2-2-0.8-3.4C33.4,30.8,33,30,33,29.5c0.2-0.1,0.5-0.3,0.7-0.4c1.7-0.9,4.1-2.1,6.5-8.4
		c1.8-4.8,1.9-9.4,0.3-13.1c-1-2.3-2.5-4-4.1-4.6L36,2.8l-0.4,0.3c-3.1,3-11.5,10.8-12.4,11.5c-0.7,0.5-1.7,0.7-2.8,0.9
		c-0.4,0.1-0.9,0.1-1.3,0.2c-2.2,0.5-4.5,1.1-5.2,3.2c-0.4,1.1,0.3,2.5,0.9,3.5c0.8,1.2,1.9,2.4,3.1,3c-0.9,5.8-3.3,7.8-5.7,9.8
		c-1.5,1.2-3,2.4-4,4.5c-2.2,4.2-2.5,7-2.6,8.5C4.2,47.6,2.2,43,2.2,43l-0.7,0.4c-1.2,0.9-1.7,3.4-1.3,6.5c0.7,5,3.6,6.1,5.9,6.1
		h107.4c3,0,5.4-2.6,5.4-5.8v-9.4C118.9,37.6,116.5,35,113.5,35z M40.1,54.2h-5.9c0.1-1.5-0.4-3.5-1.4-4.4c-0.5-0.4-1.1-0.7-1.6-1
		c-1-0.5-1.7-0.9-2.1-2c-0.7-1.7-1.1-4.5-0.9-6.1c0.1-0.5-0.3-0.9-0.7-1c-0.5-0.1-0.9,0.3-0.9,0.8c-0.2,1.9,0.2,4.9,1.1,7
		c0.7,1.7,1.9,2.3,2.9,2.8c0.5,0.3,1,0.5,1.3,0.8c0.6,0.5,0.9,2.1,0.8,3h-8c0.2-1,0.3-2.6-0.4-3.8C23.4,49,22,48.1,20.4,48
		c0.7-2,1.1-4.9,0.1-7c-0.7-1.5-2.2-2.6-3.9-2.9c-1.6-0.3-3.2,0.1-4.5,1.2c-0.4,0.3-0.4,0.9-0.1,1.2c0.3,0.4,0.8,0.4,1.1,0.1
		c1.2-1,2.3-1,3.1-0.8c1.2,0.3,2.3,1.1,2.8,2.1c1.1,2.2,0,5.8-0.8,6.7l-1.2,1.9l2.1-0.4c1.8-0.6,3.1,0.3,3.7,1.4
		c0.5,0.8,0.3,2.1,0.1,2.9H7.8H6.1c-2.6,0-3.9-1.4-4.3-4.5c-0.2-1.4-0.1-2.6,0-3.5c0.9,1.8,2.5,4,4.6,4c0,0,0,0,0.1,0l0.7,0l0.1-0.7
		c0-0.2,0-0.4,0.1-0.7c0-0.6,0.1-1.6,0.4-3c0.3-1.4,0.9-3.1,2-5.2c0.9-1.7,2.2-2.8,3.6-3.9c0.2-0.2,0.5-0.4,0.7-0.6
		c2.3-1.9,4.7-4.3,5.6-10.1c0.8,0,1.7-0.5,2.4-1.3c1-1.2,1.7-3.3,1.6-4.5c-0.3-1.9-2.8-1.9-3-1.9c-0.4,0-0.8,0.4-0.8,0.9
		c0,0.5,0.4,0.9,0.8,0.9c0.7,0,1.4,0.3,1.4,0.4c0.1,0.4-0.3,2-1.2,3c-0.3,0.3-0.7,0.7-1.2,0.7c-0.8,0-2.3-1.3-3.3-2.8
		c-0.7-1-0.8-1.7-0.7-1.9c0.4-1.2,2.1-1.7,4-2.1c0.5-0.1,0.9-0.2,1.3-0.2c1.3-0.2,2.5-0.4,3.5-1.2c0.8-0.6,5.8-5.3,9.3-8.5
		c0.8-0.8,1.6-1.5,2.2-2c0.2,0.5,0.6,0.8,1.1,0.9c0.4,0,0.7-0.1,0.9-0.4c0.5,0.6,1,1.4,1.5,2.4c0.8,1.9,1.8,5.9-0.4,11.8
		c-2.1,5.7-4.1,6.7-5.7,7.5c-0.4,0.2-0.9,0.4-1.3,0.7l-0.2,0.1l-0.1,0.2c-0.2,0.6-0.2,1.1,0.1,1.9c0.1,0.5,0.4,1,0.6,1.7
		c0.9,2.5,0.7,3.8,0.3,5.3c-0.2,1.2-0.5,2.5-0.3,4.3c0,0.1,0,0.3,0.1,0.4c0.5,3.4,1.2,4.4,2.3,6.1l0.4,0.5c0.9,1.4,2.1,1.7,3.1,2
		c0.6,0.2,1.1,0.3,1.4,0.7C40.1,52.4,40.2,53.5,40.1,54.2z"/>
</g>
<path class="st1" d="M117.3,50.2c0,2.2-1.7,4-3.8,4H41.8c0-1-0.1-2.5-1-3.8c-0.6-0.8-1.4-1-2.2-1.3c-0.9-0.3-1.7-0.5-2.2-1.4
	l-0.4-0.6c-1.1-1.6-1.6-2.3-2-5.7c-0.2-1.5,0-2.5,0.2-3.6c0.1-0.4,0.2-0.8,0.2-1.2h79.2c2.1,0,3.8,1.8,3.8,4V50.2z"/>
<path class="st2" d="M38,50.9c-1-0.3-2.2-0.7-3.1-2l-0.4-0.5c-1.1-1.6-1.8-2.6-2.3-6.1c-2.3-0.6-3.8-3-3.8-5.9c0-2.8,1-5.1,3-5.8
	c-0.2-0.8-0.3-1.4-0.1-1.9l0.1-0.2l0.2-0.1c0.4-0.3,0.8-0.5,1.3-0.7c1.6-0.8,3.5-1.8,5.7-7.5c2.2-5.8,1.2-9.9,0.4-11.8
	c-0.4-1-0.9-1.8-1.5-2.4c-0.2,0.3-0.6,0.4-0.9,0.4c-0.5,0-0.9-0.4-1.1-0.9c-0.6,0.5-1.3,1.3-2.2,2c0.7,1.7,1.2,3.7,1.2,5.7
	c0,7.6-5.7,13.7-12.7,13.7c-0.8,0-1.6-0.1-2.4-0.2c0.3,0.5,0.5,1,0.6,1.6c0.9,3.4-1,6.9-4.1,7.8c-0.7,0.2-1.5,0.3-2.2,0.2l0-0.1
	c-0.2,0.2-0.5,0.4-0.7,0.6c-1.4,1.1-2.7,2.2-3.6,3.9c-1.1,2.1-1.7,3.8-2,5.2c1,1.1,1.6,2.7,1.6,4.3c0,1.6-0.5,3-1.4,4.1H23
	c0.2-0.8,0.4-2.1-0.1-2.9c-0.6-1-1.9-2-3.7-1.4l-2.1,0.4l1.2-1.9c0.8-0.9,1.9-4.5,0.8-6.7c-0.5-1-1.6-1.8-2.8-2.1
	c-0.8-0.2-2-0.2-3.1,0.8c-0.4,0.3-0.9,0.2-1.1-0.1c-0.3-0.4-0.2-0.9,0.1-1.2c1.3-1.1,2.9-1.5,4.5-1.2c1.6,0.4,3.1,1.5,3.9,2.9
	c1.1,2.1,0.7,5-0.1,7c1.6,0.1,3,0.9,3.9,2.4c0.7,1.2,0.6,2.8,0.4,3.8h8c0.1-0.9-0.2-2.5-0.8-3c-0.4-0.3-0.9-0.6-1.3-0.8
	c-1.1-0.6-2.3-1.2-2.9-2.8c-0.8-2.1-1.3-5.1-1.1-7c0.1-0.5,0.5-0.8,0.9-0.8c0.4,0.1,0.8,0.5,0.7,1c-0.2,1.5,0.2,4.3,0.9,6.1
	c0.4,1.1,1.2,1.5,2.1,2c0.5,0.3,1.1,0.6,1.6,1c1,0.8,1.5,2.9,1.4,4.4h5.9c0-0.7,0-1.8-0.7-2.7C39.2,51.2,38.7,51.1,38,50.9z"/>
<path class="st1" d="M28.5,36.4c0,2.9,1.4,5.3,3.8,5.9c0-0.1,0-0.3-0.1-0.4c-0.2-1.8,0-3.1,0.3-4.3c0.3-1.5,0.6-2.9-0.3-5.3
	c-0.3-0.7-0.5-1.2-0.6-1.7C29.5,31.3,28.5,33.6,28.5,36.4z"/>
<path class="st1" d="M16,36c3.1-0.9,5-4.4,4.1-7.8c-0.1-0.6-0.4-1.1-0.6-1.6c0.8,0.2,1.6,0.2,2.4,0.2c7,0,12.7-6.1,12.7-13.7
	c0-2-0.4-4-1.2-5.7c-3.5,3.3-8.5,7.9-9.3,8.5c-1,0.8-2.2,1-3.5,1.2c-0.4,0.1-0.8,0.1-1.3,0.2c-1.8,0.4-3.6,0.9-4,2.1
	c-0.1,0.2,0.1,0.9,0.7,1.9c1,1.5,2.5,2.8,3.3,2.8c0.5,0,0.9-0.4,1.2-0.7c0.9-1,1.2-2.6,1.2-3c0-0.2-0.7-0.4-1.4-0.4
	c-0.5,0-0.8-0.4-0.8-0.9c0-0.5,0.4-0.9,0.8-0.9c0.2,0,2.7,0.1,3,1.9c0.2,1.2-0.6,3.2-1.6,4.5c-0.7,0.9-1.5,1.3-2.4,1.3
	c-0.9,5.8-3.3,8.2-5.6,10.1l0,0.1C14.6,36.3,15.3,36.3,16,36z M28.2,14.7c0.7,0,1.2,0.6,1.1,1.3c0,0.7-0.6,1.3-1.2,1.2
	c-0.7,0-1.2-0.6-1.1-1.3C27,15.2,27.5,14.6,28.2,14.7z"/>
<path class="st1" d="M7.6,45.8c-0.3,1.3-0.4,2.3-0.4,3c0,0.3,0,0.5-0.1,0.7l-0.1,0.7l-0.7,0c0,0,0,0-0.1,0c-2.1,0-3.7-2.1-4.6-4
	c-0.2,0.8-0.2,2,0,3.5c0.4,3.1,1.7,4.5,4.3,4.5h1.7c0.9-1.1,1.4-2.5,1.4-4.1C9.2,48.5,8.6,46.9,7.6,45.8z"/>
<g>
	<path class="st0" d="M49.8,40.1c-0.4,0-0.8,0.4-0.8,0.8v2.7h-3.7V41c0-0.5-0.3-0.8-0.8-0.8c-0.4,0-0.8,0.4-0.8,0.8v7.4
		c0,0.5,0.3,0.8,0.8,0.8c0.4,0,0.8-0.4,0.8-0.8v-3.3H49v3.3c0,0.5,0.3,0.8,0.8,0.8c0.4,0,0.8-0.4,0.8-0.8V41
		C50.5,40.5,50.2,40.1,49.8,40.1z"/>
	<path class="st0" d="M56.5,42.4c-0.4,0-0.7,0.3-0.7,0.7c-0.5-0.3-1-0.5-1.7-0.5c-1.6,0-3,1.4-3,3.2c0,1.8,1.3,3.2,3,3.2
		c0.6,0,1.2-0.2,1.7-0.5c0,0.4,0.3,0.7,0.7,0.7c0.4,0,0.7-0.3,0.7-0.7v-5.2C57.2,42.8,56.9,42.4,56.5,42.4z M54.2,47.5
		c-0.9,0-1.6-0.8-1.6-1.7c0-0.9,0.7-1.7,1.6-1.7c0.9,0,1.6,0.8,1.6,1.7C55.7,46.7,55,47.5,54.2,47.5z"/>
	<path class="st0" d="M94.2,42.4c-0.4,0-0.7,0.3-0.7,0.7c-0.5-0.3-1-0.5-1.7-0.5c-1.6,0-3,1.4-3,3.2c0,1.8,1.3,3.2,3,3.2
		c0.6,0,1.2-0.2,1.7-0.5c0,0.4,0.3,0.7,0.7,0.7c0.4,0,0.7-0.3,0.7-0.7v-5.2C94.9,42.8,94.6,42.4,94.2,42.4z M91.9,47.5
		c-0.9,0-1.6-0.8-1.6-1.7c0-0.9,0.7-1.7,1.6-1.7c0.9,0,1.6,0.8,1.6,1.7C93.5,46.7,92.8,47.5,91.9,47.5z"/>
	<path class="st0" d="M61.3,42.6c-0.6,0-1.2,0.2-1.7,0.5c0-0.4-0.3-0.7-0.7-0.7c-0.4,0-0.7,0.3-0.7,0.7v7.5c0,0.4,0.3,0.7,0.7,0.7
		c0.4,0,0.7-0.3,0.7-0.7v-2.3c0.5,0.3,1,0.5,1.6,0.5c1.6,0,3-1.4,3-3.2C64.2,44,62.9,42.6,61.3,42.6z M61.3,47.5
		c-0.9,0-1.6-0.8-1.6-1.7c0-0.9,0.7-1.7,1.6-1.7c0.9,0,1.6,0.8,1.6,1.7C62.8,46.7,62.1,47.5,61.3,47.5z"/>
	<path class="st0" d="M68.1,42.6c-0.6,0-1.2,0.2-1.7,0.5c0-0.4-0.3-0.7-0.7-0.7c-0.4,0-0.7,0.3-0.7,0.7v7.5c0,0.4,0.3,0.7,0.7,0.7
		c0.4,0,0.7-0.3,0.7-0.7v-2.3c0.5,0.3,1,0.5,1.6,0.5c1.6,0,3-1.4,3-3.2C71.1,44,69.7,42.6,68.1,42.6z M68.1,47.5
		c-0.9,0-1.6-0.8-1.6-1.7c0-0.9,0.7-1.7,1.6-1.7c0.9,0,1.6,0.8,1.6,1.7C69.7,46.7,69,47.5,68.1,47.5z"/>
	<path class="st0" d="M85.6,40.1h-2.2c-0.2,0-0.4,0.1-0.5,0.3c-0.1,0.1-0.2,0.4-0.2,0.6v7.4c0,0.5,0.3,0.8,0.8,0.8
		c0.4,0,0.8-0.4,0.8-0.8v-1.9h1.5c1.6,0,3-1.4,3-3.2C88.5,41.5,87.2,40.1,85.6,40.1z M85.6,45h-1.5v-3.4h1.5c0.9,0,1.6,0.8,1.6,1.7
		C87.2,44.2,86.4,45,85.6,45z"/>
	<path class="st0" d="M76.7,42.5c-0.4-0.1-0.8,0.1-0.9,0.4l-1.5,4.5l-1.8-4.5c-0.1-0.4-0.6-0.6-0.9-0.4c-0.4,0.2-0.5,0.6-0.4,1
		l2,5.2c0.1,0.2,0.3,0.4,0.5,0.4l-0.5,1.6c-0.1,0.4,0.1,0.8,0.4,1c0.1,0,0.2,0,0.2,0c0.3,0,0.5-0.2,0.6-0.5l2.7-7.7
		C77.3,43,77.1,42.6,76.7,42.5z"/>
	<path class="st0" d="M104.3,42.5c-0.4-0.2-0.8,0-0.9,0.4l-1.4,3.4l-1.2-3.4c0,0,0,0,0,0c0,0,0-0.1-0.1-0.1c0,0,0-0.1-0.1-0.1
		c0,0-0.1-0.1-0.1-0.1c0,0-0.1-0.1-0.1-0.1c0,0,0,0,0,0c0,0-0.1,0-0.1,0c0,0-0.1,0-0.1,0c0,0-0.1,0-0.1,0c0,0-0.1,0-0.1,0
		c0,0,0,0,0,0c0,0-0.1,0.1-0.1,0.1c0,0-0.1,0-0.1,0.1c0,0,0,0.1-0.1,0.1c0,0-0.1,0.1-0.1,0.1c0,0,0,0,0,0l-1.2,3.4l-1.3-3.4
		c-0.1-0.4-0.6-0.6-0.9-0.4c-0.4,0.2-0.5,0.6-0.4,1l2,5.2c0,0,0,0,0,0c0,0,0,0,0,0c0,0.1,0.1,0.1,0.1,0.2c0,0,0,0,0.1,0.1
		c0.1,0,0.1,0.1,0.2,0.1c0,0,0,0,0,0c0,0,0,0,0,0c0.1,0,0.1,0,0.2,0c0.1,0,0.2,0,0.2-0.1c0,0,0,0,0,0c0,0,0,0,0,0
		c0.1,0,0.1-0.1,0.1-0.1c0,0,0,0,0.1-0.1c0,0,0.1-0.1,0.1-0.2c0,0,0,0,0-0.1c0,0,0,0,0,0l1.1-3.3l1.1,3.3c0,0,0,0,0,0c0,0,0,0,0,0.1
		c0,0.1,0.1,0.1,0.1,0.2c0,0,0,0,0.1,0.1c0,0,0.1,0.1,0.1,0.1c0,0,0,0,0,0c0,0,0,0,0,0c0.1,0,0.2,0.1,0.2,0.1c0,0,0,0,0,0l0,0l0,0h0
		c0.1,0,0.1,0,0.2,0c0,0,0,0,0,0c0,0,0,0,0,0c0.1,0,0.1-0.1,0.2-0.1c0,0,0,0,0.1,0c0-0.1,0.1-0.1,0.1-0.2c0,0,0,0,0,0c0,0,0,0,0,0
		l2-5.2C104.8,43.1,104.7,42.6,104.3,42.5z"/>
</g>
<path class="st0" d="M28.2,14.7c-0.7,0-1.2,0.5-1.2,1.2c0,0.7,0.5,1.3,1.1,1.3c0.7,0,1.2-0.5,1.2-1.2C29.4,15.3,28.9,14.7,28.2,14.7
	z"/>
<g>
	<path class="st2" d="M115.3,12.8c0,0,4.2-2,5.7-3.7c0.3-0.3,0.4-0.5,0.4-0.6c0-0.2-0.4-0.4-0.7-0.5c-0.1,0-2.7-1.1-5.1-1.2
		c-0.2,0-0.3-0.1-0.5-0.2c-0.9-0.8-1.1-1.6-1.1-1.8c0-0.2,0-0.4,0.1-0.6l1.3-2.3c0,0,0-0.1,0-0.2c-0.1,0-0.3,0-0.6,0
		c-3.1,0.5-5.5,0.7-7.1,0.5c-2-0.3-4.6,0.1-8,2.5c-0.4,0.3-1.3,0.8-2,1.3c-0.1,0.1-0.4,0.1-0.4,1.5c0,0.2,0,0.4,0,0.7
		c-0.1,2.3-0.1,3.7,4.3,7.7c0.1,0.1,0.2,0.3,0.3,0.5c0.8,3.9-0.1,12.8-0.1,13.2c0,0.4-0.3,0.7-0.6,0.8c-0.2,0-0.7,0.3-0.7,1.5
		c0,0,0,0.1,0,0.1l8.6,0c0.4,0,0.8,0.4,0.8,0.8c0,0.5-0.3,0.8-0.8,0.8H97.6c-0.1,0-4,0.6-4,5.3c0,0.2,0.1,0.4,0.2,0.4
		c0.1,0.1,0.2,0,0.2,0c0,0,0.1-0.1,0.1-0.4c0-1.3,0.4-2.3,1.1-3c1.2-1.2,2.9-1.1,2.9-1l11,0c0.9,0,1.6-0.3,2-0.9
		c0.9-1.2,0.9-2.9,0.7-4.7c0-0.2-1.1-7.4-3.3-10c-0.2-0.2-0.3-0.5-0.2-0.8c0.1-0.3,0.3-0.5,0.6-0.5c4.9-0.8,5.9-4.6,5.9-4.7
		C115,13.1,115.1,12.9,115.3,12.8z"/>
	<path class="st3" d="M100.4,35.1"/>
	<path class="st1" d="M95.7,33.9c-1.7,1-2.2,1.6-2.7,4.2c0,0.1,0,0.2,0,0.3c0.1,0.2,0.4,2.4,1.6,1.2c0,0,0.4-1.2,0.4-1.2
		c0.1-0.8,0.4-1.3,0.7-1.7c0.3-0.5,0.8-0.8,1.7-0.8C98.8,34.7,98,32.5,95.7,33.9z"/>
	<path class="st0" d="M107.2,33.6c-0.4,0-0.7-0.3-0.8-0.8c-0.1-1.4,0.4-2.3,1-2.8c-0.3-0.8-0.6-2-0.2-3.1c0.2-0.7,0.6-1.5,2-1.9
		c0.4-0.1,0.8,0.1,1,0.5c0.1,0.4-0.1,0.9-0.5,1c-0.6,0.2-0.8,0.5-1,0.9c-0.3,0.9,0.2,2.1,0.4,2.5c0.1,0.2,0.1,0.5,0,0.8
		c-0.1,0.2-0.3,0.4-0.5,0.5c-0.2,0-0.7,0.3-0.7,1.5C108,33.2,107.7,33.6,107.2,33.6C107.2,33.6,107.2,33.6,107.2,33.6z"/>
	<path class="st1" d="M121,7c0,0-0.8-0.3-1.8-0.6c-4.6,2.7-4,5.4-3.2,7c0.9-0.6,5.2-3.1,5.7-3.7C123.3,7.8,121,7,121,7z"/>
	<path class="st1" d="M101.5,27.5c1.4-0.3,3.6-1.8,3.3-5.8c-0.5-7.3-2.4-6.1-3.2-5.9c-0.5,0.1-0.5,0.5-0.5,0.9
		C101.5,18.9,101.4,24.9,101.5,27.5z"/>
	<path class="st1" d="M109.1,6.2c0,0-1-4.2-4.2-3.1c-3.2,1.1-5,4.2-4.5,5.5c0.5,1.2,2.1,2.2,5.2,1.1C108.8,8.7,109.4,7.9,109.1,6.2z
		"/>
	<path class="st0" d="M103.5,33.1c-0.4,0-0.7-0.3-0.8-0.8c-0.1-1.7,0.6-2.6,1.3-3c0.1-1.3,0.2-4.9-0.4-7.8c-0.1-0.4,0.2-0.9,0.6-1
		c0.4-0.1,0.8,0.2,0.9,0.6c0.8,4,0.4,8.6,0.4,8.8c0,0.4-0.3,0.7-0.6,0.7c-0.2,0-0.7,0.3-0.7,1.5C104.3,32.7,104,33.1,103.5,33.1
		C103.5,33.1,103.5,33.1,103.5,33.1z"/>
	<path class="st0" d="M122.9,8.1c-0.3-1.2-1.5-1.7-1.6-1.7c-0.1,0-2.7-1.1-5.3-1.3c-0.1-0.1-0.2-0.3-0.3-0.4l1.2-2
		c0.1-0.1,0.5-1.2-0.1-2c-0.4-0.6-1.1-0.8-2.1-0.6c-3,0.5-5.2,0.6-6.7,0.4c-1.9-0.3-5.3-0.1-9.2,2.9c-0.9,0.7-1.9,1.1-2.2,1.4
		C96,5.5,96,6,96,7.6l0,0.6c-0.1,2.8,0.1,4.7,4.6,8.9c0.6,3.3-0.2,10.1-0.2,12c-0.7,0.4-1.4,1.3-1.3,2.9l-1.6,0
		c-1.9,0.3-5.4,2-5.4,6.9c0,0.8,0.4,1.5,1,1.9c0.3,0.2,0.6,0.2,0.9,0.2c0.3,0,0.6-0.1,0.9-0.3c0.5-0.4,0.8-1.1,0.8-1.8
		c0-0.8,0.2-1.4,0.6-1.7c0.7-0.7,1.8-0.6,1.9-0.6h11c1.4,0,2.4-0.5,3.2-1.5c1.9-2.4,1-6,1-6.2c0-0.1-1-6.6-2.9-9.5
		c4-1.1,5.4-4.2,5.8-5.3c1.1-0.5,4.4-2.3,5.9-3.8C123,9.4,123,8.6,122.9,8.1z M121.1,9.2c-1.5,1.6-5.7,3.6-5.7,3.7
		c-0.2,0.1-0.4,0.3-0.4,0.5c0,0.2-1,3.9-5.9,4.7c-0.3,0-0.5,0.3-0.6,0.5c-0.1,0.3,0,0.6,0.2,0.8c2.2,2.6,3.3,9.8,3.3,10
		c0.2,1.8,0.2,3.5-0.7,4.7c-0.5,0.6-1.1,0.9-2,0.9l-11,0c-0.1,0-1.8-0.1-2.9,1c-0.7,0.7-1.1,1.7-1.1,3c0,0.3,0,0.4-0.1,0.4
		c0,0-0.1,0-0.2,0c-0.1-0.1-0.2-0.2-0.2-0.4c0-4.7,3.9-5.3,4-5.3h11.7c0.4,0,0.8-0.4,0.8-0.8c0-0.5-0.3-0.8-0.8-0.8l-8.6,0
		c0,0,0-0.1,0-0.1c-0.1-1.2,0.5-1.4,0.7-1.5c0.4-0.1,0.6-0.4,0.6-0.8c0-0.4,0.8-9.3,0.1-13.2c0-0.2-0.1-0.3-0.3-0.5
		c-4.4-4-4.4-5.5-4.3-7.7c0-0.2,0-0.4,0-0.7c0-1.5,0.3-1.4,0.4-1.5c0.6-0.5,1.5-1,2-1.3c3.4-2.4,6-2.7,8-2.5
		c1.6,0.2,3.9,0.1,7.1-0.5c0.3-0.1,0.5,0,0.6,0c0,0.1,0,0.2,0,0.2l-1.3,2.3c-0.1,0.2-0.1,0.4-0.1,0.6c0,0.2,0.2,1,1.1,1.8
		c0.1,0.1,0.3,0.2,0.5,0.2c2.4,0,5.1,1.2,5.1,1.2c0.3,0.1,0.6,0.4,0.7,0.5C121.5,8.6,121.4,8.8,121.1,9.2z"/>
	<circle class="st0" cx="97.7" cy="6.4" r="1.1"/>
	<circle class="st0" cx="104.8" cy="6.4" r="1.2"/>
</g>
</svg>
